<svg width="27" height="27" viewBox="0 0 27 27" fill="none" xmlns="http://www.w3.org/2000/svg">
<path fill-rule="evenodd" clip-rule="evenodd" d="M11.3333 22C5.44226 22 0.666626 17.2243 0.666626 11.3333C0.666626 5.44226 5.44226 0.666626 11.3333 0.666626C17.2243 0.666626 22 5.44226 22 11.3333C22 13.1661 21.5377 14.891 20.7234 16.3977C20.2439 17.2848 20.2948 18.4092 21.0079 19.1223L26 24.1143C26.5207 24.635 26.5207 25.4793 26 26C25.4793 26.5207 24.635 26.5207 24.1143 26L19.1223 21.0079C18.4092 20.2948 17.2848 20.2439 16.3977 20.7234C14.891 21.5377 13.1661 22 11.3333 22ZM19.3333 11.3333C19.3333 15.7516 15.7516 19.3333 11.3333 19.3333C6.91501 19.3333 3.33329 15.7516 3.33329 11.3333C3.33329 6.91501 6.91501 3.33329 11.3333 3.33329C15.7516 3.33329 19.3333 6.91501 19.3333 11.3333Z" fill="#A3A3A3"/>
</svg>
