<svg width="14" height="14" viewBox="0 0 14 14" fill="none" xmlns="http://www.w3.org/2000/svg">
<path fill-rule="evenodd" clip-rule="evenodd" d="M2.46241 11.5372C1.92328 10.9981 1.76861 10.1757 1.93769 9.09666C1.05514 8.45323 0.583008 7.76236 0.583008 6.99992C0.583008 6.23748 1.05514 5.54661 1.93769 4.90318C1.76861 3.82414 1.92328 3.00177 2.46241 2.46265C3.00153 1.92353 3.8239 1.76886 4.90293 1.93793C5.54637 1.05539 6.23724 0.583252 6.99967 0.583252C7.76211 0.583252 8.45298 1.05539 9.09642 1.93793C10.1754 1.76886 10.9978 1.92353 11.5369 2.46265C12.0761 3.00177 12.2307 3.82414 12.0617 4.90318C12.9442 5.54661 13.4163 6.23748 13.4163 6.99992C13.4163 7.76236 12.9442 8.45323 12.0617 9.09666C12.2307 10.1757 12.0761 10.9981 11.5369 11.5372C10.9978 12.0763 10.1754 12.231 9.09642 12.0619C8.45298 12.9444 7.76211 13.4166 6.99967 13.4166C6.23724 13.4166 5.54637 12.9444 4.90293 12.0619C3.8239 12.231 3.00153 12.0763 2.46241 11.5372ZM5.04701 10.8487C5.28381 10.798 5.52731 10.8989 5.65888 11.1022C6.17266 11.896 6.63079 12.2499 6.99967 12.2499C7.36856 12.2499 7.82669 11.896 8.34047 11.1022C8.47204 10.8989 8.71554 10.798 8.95233 10.8487C9.87694 11.0468 10.4511 10.9731 10.712 10.7122C10.9728 10.4514 11.0465 9.87718 10.8485 8.95258C10.7978 8.71579 10.8986 8.47229 11.1019 8.34071C11.8958 7.82693 12.2497 7.3688 12.2497 6.99992C12.2497 6.63104 11.8958 6.1729 11.1019 5.65913C10.8986 5.52755 10.7978 5.28405 10.8485 5.04726C11.0465 4.12265 10.9728 3.54845 10.712 3.28761C10.4511 3.02677 9.87694 2.95308 8.95233 3.15109C8.71554 3.20181 8.47204 3.10095 8.34047 2.89765C7.82669 2.10384 7.36856 1.74992 6.99967 1.74992C6.63079 1.74992 6.17266 2.10384 5.65888 2.89765C5.52731 3.10095 5.28381 3.20181 5.04701 3.15109C4.12241 2.95308 3.5482 3.02677 3.28736 3.28761C3.02653 3.54845 2.95284 4.12265 3.15085 5.04726C3.20156 5.28405 3.1007 5.52755 2.89741 5.65913C2.10359 6.1729 1.74967 6.63104 1.74967 6.99992C1.74967 7.3688 2.10359 7.82693 2.89741 8.34071C3.1007 8.47229 3.20156 8.71579 3.15085 8.95258C2.95284 9.87718 3.02653 10.4514 3.28736 10.7122C3.5482 10.9731 4.12241 11.0468 5.04701 10.8487ZM8.92053 4.83744L6.41634 7.34163L5.07882 6.00411L4.25386 6.82906L6.41634 8.99154L9.74549 5.6624L8.92053 4.83744Z" fill="#006437"/>
</svg>
