<svg width="12" height="12" viewBox="0 0 12 12" fill="none" xmlns="http://www.w3.org/2000/svg">
<path fill-rule="evenodd" clip-rule="evenodd" d="M10.7731 0.166748H8.33366V1.33341H10.667V3.66675H11.8337V1.33341C11.8337 0.689082 11.3588 0.166748 10.7731 0.166748ZM3.66699 11.8334H1.2276C0.641842 11.8334 0.166992 11.3111 0.166992 10.6667V8.33341H1.33366V10.6667H3.66699V11.8334ZM8.33366 11.8334V10.6667H10.667V8.33341H11.8337V10.6667C11.8337 11.3111 11.3588 11.8334 10.7731 11.8334H8.33366ZM3.66699 0.166748V1.33341H1.33366V3.66675H0.166992V1.33341C0.166992 0.689082 0.641842 0.166748 1.2276 0.166748H3.66699ZM7.75033 3.66675L5.24614 6.17094L3.90862 4.83341L3.08366 5.65837L5.24614 7.82085L8.57528 4.49171L7.75033 3.66675Z" fill="#006437"/>
</svg>
