<svg width="237" height="238" viewBox="0 0 237 238" fill="none" xmlns="http://www.w3.org/2000/svg">
<rect width="237" height="238" fill="#B5B5B5"/>
<g id="components">
<path d="M-1047 -1696C-1047 -1697.1 -1046.1 -1698 -1045 -1698H6524C6525.1 -1698 6526 -1697.1 6526 -1696V1760C6526 1761.1 6525.1 1762 6524 1762H-1045C-1046.1 1762 -1047 1761.1 -1047 1760V-1696Z" fill="white"/>
<path d="M-1045 -1697H6524V-1699H-1045V-1697ZM6525 -1696V1760H6527V-1696H6525ZM6524 1761H-1045V1763H6524V1761ZM-1046 1760V-1696H-1048V1760H-1046ZM-1045 1761C-1045.55 1761 -1046 1760.55 -1046 1760H-1048C-1048 1761.66 -1046.66 1763 -1045 1763V1761ZM6525 1760C6525 1760.55 6524.55 1761 6524 1761V1763C6525.66 1763 6527 1761.66 6527 1760H6525ZM6524 -1697C6524.55 -1697 6525 -1696.55 6525 -1696H6527C6527 -1697.66 6525.66 -1699 6524 -1699V-1697ZM-1045 -1699C-1046.66 -1699 -1048 -1697.66 -1048 -1696H-1046C-1046 -1696.55 -1045.55 -1697 -1045 -1697V-1699Z" fill="black" fill-opacity="0.1"/>
<g id="emergency">
<rect x="-237.5" y="-635.5" width="591" height="2069" rx="4.5" stroke="#9747FF" stroke-dasharray="10 5"/>
<g id="state=state2">
<g clip-path="url(#clip0_1_5)">
<rect x="-218" y="-133" width="552" height="450" rx="16" fill="#121212"/>
<path id="Blob 16" d="M119.5 11.6465C92.0286 33.0741 66.7102 13.5618 38.602 24.5276C8.66609 36.2028 7.98555 59.7931 14.1326 74.3862C18.8712 85.6355 17.4147 92.9791 7.64818 103.87C0.399175 111.221 -3.94381 120.705 6.29029 131.21C16.5245 141.714 17.5695 151.534 14.7149 159.855C11.8609 168.176 10.6439 178.005 14.227 187.188C20.2902 202.736 36.6131 212.037 53.0616 209.709C71.4423 206.946 83.9627 209.244 93.7905 225.315C96.2469 229.331 112.194 248.684 127.347 228.846C131.175 223.836 144.152 199.033 170.212 209.947C176.701 212.664 187.677 212.123 195.828 208.946C217.683 200.421 227.131 173.291 215.755 153.014C207.991 137.552 205.937 129.191 224.525 123.473C242.916 117.815 237.271 90.6551 221.38 85.8232C201.28 81.9105 199.976 50.4712 191.705 29.2685C180.399 0.286705 142.489 -8.47209 119.5 11.6465Z" fill="#4347FF"/>
</g>
</g>
</g>
</g>
<defs>
<clipPath id="clip0_1_5">
<rect x="-218" y="-133" width="552" height="450" rx="16" fill="white"/>
</clipPath>
</defs>
</svg>
