<svg width="12" height="11" viewBox="0 0 12 11" fill="none" xmlns="http://www.w3.org/2000/svg">
<path fill-rule="evenodd" clip-rule="evenodd" d="M2.11287 9.38909C1.65076 8.92698 1.51819 8.22209 1.66311 7.29721C0.906641 6.74569 0.501953 6.15352 0.501953 5.5C0.501953 4.84648 0.906641 4.25431 1.66311 3.70279C1.51819 2.77791 1.65076 2.07302 2.11287 1.61091C2.57497 1.14881 3.27986 1.01623 4.20474 1.16115C4.75626 0.404688 5.34844 0 6.00195 0C6.65547 0 7.24764 0.404688 7.79916 1.16115C8.72404 1.01623 9.42893 1.14881 9.89104 1.61091C10.3531 2.07302 10.4857 2.77791 10.3408 3.70279C11.0973 4.25431 11.502 4.84648 11.502 5.5C11.502 6.15352 11.0973 6.74569 10.3408 7.29721C10.4857 8.22209 10.3531 8.92698 9.89104 9.38909C9.42893 9.85119 8.72404 9.98376 7.79916 9.83884C7.24764 10.5953 6.65547 11 6.00195 11C5.34844 11 4.75626 10.5953 4.20474 9.83884C3.27986 9.98376 2.57497 9.85119 2.11287 9.38909ZM4.32794 8.799C4.53091 8.75554 4.73962 8.84199 4.8524 9.01624C5.29278 9.69665 5.68547 10 6.00165 10C6.31783 10 6.71052 9.69665 7.1509 9.01624C7.26368 8.84199 7.47239 8.75554 7.67536 8.799C8.46788 8.96873 8.96006 8.90557 9.18363 8.68199C9.40721 8.45842 9.47037 7.96624 9.30064 7.17372C9.25718 6.97076 9.34363 6.76204 9.51788 6.64926C10.1983 6.20888 10.5017 5.8162 10.5017 5.50001C10.5017 5.18383 10.1983 4.79114 9.51788 4.35076C9.34363 4.23798 9.25718 4.02927 9.30064 3.8263C9.47037 3.03379 9.40721 2.54161 9.18363 2.31803C8.96006 2.09446 8.46788 2.03129 7.67536 2.20102C7.47239 2.24449 7.26368 2.15804 7.1509 1.98378C6.71052 1.30337 6.31783 1.00001 6.00165 1.00001C5.68547 1.00001 5.29278 1.30337 4.8524 1.98378C4.73962 2.15804 4.53091 2.24449 4.32794 2.20102C3.53542 2.03129 3.04325 2.09446 2.81967 2.31803C2.5961 2.54161 2.53293 3.03379 2.70266 3.8263C2.74613 4.02927 2.65967 4.23798 2.48542 4.35076C1.80501 4.79114 1.50165 5.18383 1.50165 5.50001C1.50165 5.8162 1.80501 6.20888 2.48542 6.64926C2.65967 6.76204 2.74613 6.97076 2.70266 7.17372C2.53293 7.96624 2.5961 8.45842 2.81967 8.68199C3.04325 8.90557 3.53542 8.96873 4.32794 8.799ZM7.64806 3.64643L5.50162 5.79288L4.35517 4.64643L3.64806 5.35354L5.50162 7.20709L8.35517 4.35354L7.64806 3.64643Z" fill="#1679D3"/>
</svg>
