<svg width="14" height="14" viewBox="0 0 14 14" fill="none" xmlns="http://www.w3.org/2000/svg">
<path fill-rule="evenodd" clip-rule="evenodd" d="M6.99967 13.4166C3.45585 13.4166 0.583008 10.5437 0.583008 6.99992C0.583008 3.45609 3.45585 0.583252 6.99967 0.583252C10.5435 0.583252 13.4163 3.45609 13.4163 6.99992C13.4163 10.5437 10.5435 13.4166 6.99967 13.4166ZM11.316 9.9893C11.9047 9.14094 12.2497 8.11071 12.2497 6.99992C12.2497 4.10042 9.89917 1.74992 6.99967 1.74992C4.10018 1.74992 1.74967 4.10042 1.74967 6.99992C1.74967 8.11072 2.09465 9.14094 2.6833 9.9893C3.33981 9.12212 4.88253 8.74992 6.99967 8.74992C9.11682 8.74992 10.6595 9.12212 11.316 9.9893ZM10.4791 10.9314C10.3083 10.3175 9.08181 9.91659 6.99967 9.91659C4.91754 9.91659 3.69101 10.3175 3.52028 10.9314C4.4466 11.7519 5.66497 12.2499 6.99967 12.2499C8.33438 12.2499 9.55275 11.7519 10.4791 10.9314ZM6.99967 3.49992C5.58748 3.49992 4.66634 4.52411 4.66634 5.83325C4.66634 7.83255 5.69351 8.74992 6.99967 8.74992C8.29356 8.74992 9.33301 7.86303 9.33301 5.94992C9.33301 4.62084 8.40795 3.49992 6.99967 3.49992ZM5.83301 5.83325C5.83301 7.15698 6.3103 7.58325 6.99967 7.58325C7.68667 7.58325 8.16634 7.17398 8.16634 5.94992C8.16634 5.22099 7.70881 4.66658 6.99967 4.66658C6.26102 4.66658 5.83301 5.14248 5.83301 5.83325Z" fill="#121212"/>
</svg>
