<svg width="11" height="11" viewBox="0 0 11 11" fill="none" xmlns="http://www.w3.org/2000/svg">
<path fill-rule="evenodd" clip-rule="evenodd" d="M9.50929 0.5H7.41838V1.5H9.41838V3.5H10.4184V1.5C10.4184 0.947715 10.0114 0.5 9.50929 0.5ZM3.41797 10.4999H1.32706C0.824983 10.4999 0.417969 10.0522 0.417969 9.49994V7.49994H1.41797V9.49994H3.41797V10.4999ZM7.41838 10.4999V9.49994H9.41838V7.49994H10.4184V9.49994C10.4184 10.0522 10.0114 10.4999 9.50929 10.4999H7.41838ZM3.41797 0.5V1.5H1.41797V3.5H0.417969V1.5C0.417969 0.947715 0.824983 0.5 1.32706 0.5H3.41797ZM6.91784 3.50004L4.7714 5.64649L3.62495 4.50004L2.91784 5.20715L4.7714 7.0607L7.62495 4.20715L6.91784 3.50004Z" fill="#1679D3"/>
</svg>
